<svg width="40" height="40" viewBox="0 0 40 40" xmlns="http://www.w3.org/2000/svg">
<path d="M3 32H37V30L35 28H5L3 30V32Z" fill="#8E8E93"/>
<path d="M5 28H35V26H30V24H25V22H20V24H15V26H10V28H5Z" fill="#8E8E93"/>
<path d="M28 18V24H32V22H35V20H32V18H28Z" fill="#8E8E93"/>
<path d="M30 12V18" stroke="#8E8E93" stroke-width="2"/>
<rect x="6" y="25" width="2" height="2" fill="#FFFFFF"/>
<rect x="11" y="25" width="2" height="2" fill="#FFFFFF"/>
<rect x="16" y="25" width="2" height="2" fill="#FFFFFF"/>
<rect x="26" y="23" width="3" height="1" fill="#FFFFFF"/>
<polygon points="32 24, 35 26, 32 28" fill="#8E8E93"/>
</svg>
