<svg width="40" height="40" viewBox="0 0 40 40" xmlns="http://www.w3.org/2000/svg">
<path d="M3 32H37V30L35 28H5L3 30V32Z" fill="#FFCC00"/>
<path d="M5 28H35V26H32V24H29V22H26V20H23V18H20V16H17V14H14V12H11V10H8V28H5Z" fill="#FFCC00"/>
<path d="M30 20L34 22H30V20Z" fill="#FFCC00"/>
<path d="M31 18L35 20H31V18Z" fill="#FFCC00"/>
<path d="M32 16L36 18H32V16Z" fill="#FFCC00"/>
<path d="M33 14L37 16H33V14Z" fill="#FFCC00"/>
<rect x="9" y="26" width="2" height="1" fill="#FFFFFF"/>
<rect x="12" y="26" width="2" height="1" fill="#FFFFFF"/>
<rect x="15" y="26" width="2" height="1" fill="#FFFFFF"/>
<rect x="18" y="26" width="2" height="1" fill="#FFFFFF"/>
<rect x="21" y="26" width="2" height="1" fill="#FFFFFF"/>
<rect x="24" y="26" width="2" height="1" fill="#FFFFFF"/>
<rect x="27" y="26" width="2" height="1" fill="#FFFFFF"/>
<rect x="10" y="23" width="2" height="1" fill="#FFFFFF"/>
<rect x="13" y="23" width="2" height="1" fill="#FFFFFF"/>
<rect x="16" y="23" width="2" height="1" fill="#FFFFFF"/>
<rect x="19" y="23" width="2" height="1" fill="#FFFFFF"/>
<rect x="22" y="23" width="2" height="1" fill="#FFFFFF"/>
<rect x="25" y="23" width="2" height="1" fill="#FFFFFF"/>
<rect x="11" y="19" width="1" height="1" fill="#FFFFFF"/>
<rect x="14" y="19" width="1" height="1" fill="#FFFFFF"/>
<rect x="17" y="19" width="1" height="1" fill="#FFFFFF"/>
<rect x="20" y="19" width="1" height="1" fill="#FFFFFF"/>
<rect x="23" y="19" width="1" height="1" fill="#FFFFFF"/>
</svg>
